HIERARCHY
ROOT RootJoint
{
    OFFSET   0.000000   0.000000   0.000000
    CHANNELS 6 Xposition Yposition Zposition Xrotation Yrotation Zrotation
    JOINT pelvis_lowerback
    {
        OFFSET   0.000000   0.093605   0.000000
        CHANNELS 3 Xrotation Yrotation Zrotation
        JOINT lowerback_torso
        {
            OFFSET   0.000000   0.100000   0.000000
            CHANNELS 3 Xrotation Yrotation Zrotation
            JOINT torso_head
            {
                OFFSET   0.000000   0.282350   0.000000
                CHANNELS 3 Xrotation Yrotation Zrotation
                End Site
                {
                    OFFSET   0.000000   0.192650   0.000000
                }
            }
            JOINT rTorso_Clavicle
            {
                OFFSET  -0.001000   0.157500   0.000000
                CHANNELS 3 Xrotation Yrotation Zrotation
                JOINT rShoulder
                {
                    OFFSET  -0.117647   0.000000   0.000000
                    CHANNELS 3 Xrotation Yrotation Zrotation
                    JOINT rElbow
                    {
                        OFFSET  -0.245000   0.000000   0.000000
                        CHANNELS 3 Xrotation Yrotation Zrotation
                        JOINT rWrist
                        {
                            OFFSET  -0.240000   0.000000   0.000000
                            CHANNELS 3 Xrotation Yrotation Zrotation
                            End Site
                            {
                                OFFSET  -0.116353  -0.002500   0.000000
                            }
                        }
                    }
                }
            }
            JOINT lTorso_Clavicle
            {
                OFFSET   0.001000   0.157500   0.000000
                CHANNELS 3 Xrotation Yrotation Zrotation
                JOINT lShoulder
                {
                    OFFSET   0.117647   0.000000   0.000000
                    CHANNELS 3 Xrotation Yrotation Zrotation
                    JOINT lElbow
                    {
                        OFFSET   0.245000   0.000000   0.000000
                        CHANNELS 3 Xrotation Yrotation Zrotation
                        JOINT lWrist
                        {
                            OFFSET   0.240000   0.000000   0.000000
                            CHANNELS 3 Xrotation Yrotation Zrotation
                            End Site
                            {
                                OFFSET   0.116353  -0.002500   0.000000
                            }
                        }
                    }
                }
            }
        }
    }
    JOINT rHip
    {
        OFFSET  -0.100000  -0.051395   0.000000
        CHANNELS 3 Xrotation Yrotation Zrotation
        JOINT rKnee
        {
            OFFSET   0.000000  -0.410000   0.000000
            CHANNELS 3 Xrotation Yrotation Zrotation
            JOINT rAnkle
            {
                OFFSET   0.000000  -0.390000   0.000000
                CHANNELS 3 Xrotation Yrotation Zrotation
                JOINT rToeJoint
                {
                    OFFSET   0.000000  -0.050000   0.130000
                    CHANNELS 3 Xrotation Yrotation Zrotation
                    End Site
                    {
                        OFFSET  -0.010000   0.002000   0.060000
                    }
                }
            }
        }
    }
    JOINT lHip
    {
        OFFSET   0.100000  -0.051395   0.000000
        CHANNELS 3 Xrotation Yrotation Zrotation
        JOINT lKnee
        {
            OFFSET   0.000000  -0.410000   0.000000
            CHANNELS 3 Xrotation Yrotation Zrotation
            JOINT lAnkle
            {
                OFFSET   0.000000  -0.390000   0.000000
                CHANNELS 3 Xrotation Yrotation Zrotation
                JOINT lToeJoint
                {
                    OFFSET   0.000000  -0.050000   0.130000
                    CHANNELS 3 Xrotation Yrotation Zrotation
                    End Site
                    {
                        OFFSET   0.010000   0.002000   0.060000
                    }
                }
            }
        }
    }
}
MOTION
Frames: 15
Frame Time:   0.008333
 -3.029392   0.898474   3.872481  -1.588749  28.501651  -1.997688   0.283759  -3.755265  -0.194000   1.498535  -8.457800   2.230336   2.397273  -8.339745   3.548593  -4.282642   3.432435  -4.520064 -32.156127   1.725318   6.206239   0.002559  39.770721  -0.007211  -4.104552   4.576683  -6.274841  -2.648352 -11.987594   4.665370 -13.283501 -40.444544 -23.860571 179.999168 -82.767715 179.999056  -0.385520  -9.993752  -2.880609 -15.865783 -11.508258  -0.304709  18.492444   0.000170   0.000500  -0.871582  -8.986628  -0.030934   0.142998  -0.000253   0.000080   4.756632   1.367494   4.978497  30.226500  -0.008347  -0.009707 -18.503674   0.573484  -0.850421  -4.678276  -0.002639  -0.002756
 -3.030169   0.898130   3.868090  -1.559467  28.938905  -1.953234   0.324079  -3.742364  -0.231657   1.547182  -8.443140   2.211787   2.522007  -8.354883   3.586141  -4.338998   3.443044  -4.531353 -32.534124   1.632084   6.046931   0.002800  39.256218  -0.007611  -4.184952   4.572610  -6.203545  -2.646081 -12.068011   4.727475 -13.160531 -40.817197 -23.795529 179.998942 -82.745378 179.998844  -0.462208  -9.989987  -2.831746 -16.195072 -11.790529  -0.596997  18.531831   0.000168   0.000433  -0.733398  -9.200802   0.197128   0.477659  -0.000660  -0.000271   4.913507   1.208016   4.916429  29.305930  -0.007853  -0.009598 -18.872233   0.242678  -0.716672  -5.097944  -0.001985  -0.001872
 -3.030938   0.897764   3.863641  -1.531275  29.351013  -1.917235   0.370260  -3.724585  -0.266465   1.596249  -8.429748   2.196838   2.644966  -8.364566   3.619580  -4.398570   3.446934  -4.552037 -32.893165   1.542187   5.885251   0.002966  38.770829  -0.007704  -4.267507   4.539619  -6.180140  -2.646690 -12.154080   4.798927 -13.045385 -41.181654 -23.729305 179.998633 -82.715579 179.998544  -0.535846  -9.986453  -2.832375 -16.518470 -12.064861  -0.880173  18.553898   0.000151   0.000362  -0.608082  -9.405116   0.417185   0.780269  -0.000940  -0.000532   5.050352   1.055610   4.856090  28.416127  -0.007377  -0.009323 -19.217729  -0.077781  -0.597899  -5.482572  -0.001502  -0.001182
 -3.031699   0.897368   3.859146  -1.512249  29.733933  -1.886170   0.424128  -3.708364  -0.297604   1.647852  -8.418816   2.182548   2.761926  -8.372806   3.650659  -4.456353   3.450517  -4.577960 -33.230448   1.460590   5.729378   0.003028  38.317722  -0.007533  -4.347286   4.502607  -6.174876  -2.649377 -12.238386   4.869873 -12.938377 -41.525401 -23.664741 179.998426 -82.686144 179.998344  -0.606277  -9.983035  -2.844983 -16.830464 -12.320178  -1.150018  18.562965   0.000128   0.000295  -0.492972  -9.595942   0.623924   1.057153  -0.001112  -0.000698   5.168661   0.914247   4.795978  27.573181  -0.006916  -0.008890 -19.541327  -0.378924  -0.489800  -5.847355  -0.001140  -0.000663
 -3.032449   0.896939   3.854617  -1.505581  30.085764  -1.858343   0.484113  -3.693792  -0.326103   1.702387  -8.409246   2.168356   2.872571  -8.380300   3.679681  -4.511251   3.455026  -4.605931 -33.546396   1.386885   5.581612   0.003015  37.895338  -0.007193  -4.423487   4.468784  -6.175362  -2.652441 -12.319144   4.937552 -12.838129 -41.847456 -23.603000 179.998329 -82.658600 179.998252  -0.673730  -9.979718  -2.859571 -17.129281 -12.556540  -1.405958  18.562496   0.000102   0.000236  -0.386755  -9.773759   0.817654   1.310647  -0.001204  -0.000799   5.271594   0.784014   4.735947  26.780411  -0.006463  -0.008329 -19.845466  -0.660348  -0.391041  -6.203932  -0.000871  -0.000267
 -3.033183   0.896475   3.850063  -1.512494  30.405751  -1.832883   0.548406  -3.680240  -0.352787   1.759285  -8.400176   2.154101   2.976942  -8.387215   3.706702  -4.562942   3.460621  -4.634024 -33.841959   1.320083   5.442745   0.002955  37.501625  -0.006760  -4.496149   4.439109  -6.177064  -2.654914 -12.395744   5.001094 -12.743640 -42.148609 -23.544520 179.998319 -82.633097 179.998245  -0.738393  -9.976498  -2.874649 -17.414476 -12.775406  -1.648035  18.554809   0.000076   0.000185  -0.288431  -9.939456   0.999203   1.542785  -0.001238  -0.000858   5.361971   0.664143   4.676101  26.037261  -0.006017  -0.007671 -20.132418  -0.923081  -0.300928  -6.562843  -0.000675   0.000048
 -3.033899   0.895977   3.845490  -1.533344  30.693922  -1.809215   0.615414  -3.667275  -0.378247   1.817691  -8.391126   2.139723   3.075177  -8.393622   3.731774  -4.611388   3.467209  -4.661139 -34.118239   1.259280   5.312908   0.002870  37.134579  -0.006284  -4.565465   4.413131  -6.178194  -2.656396 -12.467970   5.060316 -12.654273 -42.429965 -23.489385 179.998370 -82.609538 179.998299  -0.800406  -9.973371  -2.890229 -17.686119 -12.978253  -1.876563  18.541421   0.000052   0.000144  -0.197251 -10.093908   1.169387   1.755413  -0.001230  -0.000888   5.442065   0.553778   4.616498  25.341826  -0.005581  -0.006952 -20.404205  -1.168348  -0.218924  -6.932602  -0.000539   0.000311
 -3.034588   0.895289   3.840907  -1.538731  30.970832  -1.789837   0.648391  -3.629549  -0.415169   1.902386  -8.363386   2.127960   3.169150  -8.374788   3.762588  -4.651604   3.416174  -4.628037 -34.452504   1.177929   5.117244   0.002930  36.810662  -0.005974  -4.650594   4.458383  -6.169183  -2.651778 -12.520404   5.094971 -12.445361 -42.817072 -23.321628 179.998104 -82.577793 179.998031  -0.889943  -9.969819  -2.790919 -18.064233 -13.210240  -2.145213  18.711609   0.000164   0.000095  -0.258651 -10.232785   1.406007   1.795405  -0.001057  -0.000758   5.528080   0.499310   4.546079  24.614531  -0.005421  -0.006655 -20.710602  -1.425492  -0.067715  -7.393339  -0.000151   0.000485
 -3.035280   0.894478   3.836327  -1.561270  31.260861  -1.782300   0.692199  -3.604266  -0.440937   1.996524  -8.348759   2.125521   3.259818  -8.354281   3.790870  -4.693338   3.346693  -4.587012 -34.767154   1.086669   4.927396   0.002916  36.504515  -0.005610  -4.733754   4.502987  -6.196840  -2.634229 -12.569912   5.123347 -12.236562 -43.184550 -23.164641 179.997873 -82.543608 179.997787  -0.976604  -9.966309  -2.740180 -18.441916 -13.435674  -2.398697  18.914892   0.000279   0.000092  -0.300411 -10.365324   1.633876   1.820630  -0.000887  -0.000630   5.616584   0.454315   4.494312  23.914910  -0.005322  -0.006494 -21.013748  -1.661031   0.070268  -8.005003   0.000220   0.000455
 -3.035973   0.893586   3.831739  -1.600015  31.554470  -1.783474   0.745246  -3.589860  -0.458130   2.097650  -8.344864   2.130388   3.345975  -8.334700   3.817241  -4.733136   3.269483  -4.539882 -35.060944   0.991461   4.749062   0.002828  36.215233  -0.005202  -4.814908   4.531623  -6.235907  -2.609206 -12.615770   5.144851 -12.032826 -43.527545 -23.018337 179.997774 -82.511896 179.997675  -1.060082  -9.962806  -2.715927 -18.808319 -13.645414  -2.634708  19.127478   0.000379   0.000132  -0.328144 -10.489253   1.849235   1.845122  -0.000747  -0.000520   5.700234   0.416082   4.455906  23.253144  -0.005226  -0.006352 -21.310533  -1.876260   0.196509  -8.715729   0.000540   0.000235
 -3.036660   0.892640   3.827138  -1.653469  31.843691  -1.789677   0.805193  -3.582699  -0.469394   2.203113  -8.347648   2.140379   3.427491  -8.316315   3.841695  -4.770300   3.189603  -4.487926 -35.334830   0.895419   4.583287   0.002686  35.942534  -0.004776  -4.894009   4.545514  -6.276158  -2.579719 -12.658201   5.161079 -11.836051 -43.847050 -22.881589 179.997783 -82.483076 179.997672  -1.140396  -9.959325  -2.706466 -19.160264 -13.839132  -2.855884  19.338603   0.000461   0.000188  -0.347405 -10.604815   2.051738   1.868625  -0.000630  -0.000427   5.776998   0.383488   4.425146  22.629714  -0.005111  -0.006176 -21.599343  -2.073626   0.311842  -9.490760   0.000790  -0.000102
 -3.037182   0.892037   3.822673  -1.732483  32.081254  -1.671707   0.845262  -3.561829  -0.572364   2.309093  -8.340764   2.111860   3.504925  -8.298845   3.861921  -4.801742   3.105557  -4.401801 -35.587097   0.791838   4.443128   0.002492  35.688035  -0.004401  -4.968509   4.563665  -6.304043  -2.528126 -12.682741   5.154689 -11.630768 -44.138622 -22.759028 179.997886 -82.455483 179.997758  -1.216851  -9.955359  -2.743579 -19.459880 -13.991683  -3.176009  19.465078   0.000467   0.000146  -0.407656 -10.708476   2.223716   1.897237  -0.000538  -0.000364   5.859933   0.352558   4.272467  22.115057  -0.004815  -0.005681 -22.247263  -2.256276   0.308183  -8.280371   0.001228   0.000343
 -3.037616   0.891559   3.818325  -1.811617  32.290195  -1.538146   0.871293  -3.541197  -0.671000   2.400678  -8.332515   2.072395   3.574662  -8.282748   3.876012  -4.830509   3.023133  -4.323442 -35.821848   0.691502   4.312070   0.002329  35.447383  -0.004078  -5.042085   4.564350  -6.319147  -2.474808 -12.699457   5.148201 -11.433402 -44.407296 -22.644736 179.998012 -82.429959 179.997879  -1.291447  -9.951384  -2.782561 -19.723277 -14.126335  -3.498121  19.533197   0.000427   0.000106  -0.488991 -10.805042   2.376750   1.920775  -0.000457  -0.000311   5.931397   0.322948   4.096050  21.623948  -0.004529  -0.005148 -22.772554  -2.442230   0.316548  -7.178618   0.001499   0.000379
 -3.037922   0.891178   3.814162  -1.866990  32.490913  -1.338992   0.869366  -3.479022  -0.809957   2.451403  -8.312734   1.995337   3.580655  -8.245660   3.886065  -4.879730   2.888182  -4.190912 -36.083719   0.545776   4.133831   0.002152  35.301647  -0.003740  -5.123484   4.591138  -6.334900  -2.376100 -12.699495   5.139333 -11.083371 -44.741763 -22.394928 179.997323 -82.374389 179.997156  -1.374490  -9.948524  -2.733834 -20.005488 -14.264200  -3.872404  19.776684   0.000468  -0.000019  -0.535159 -10.887462   2.553377   1.824916  -0.000252  -0.000147   6.000156   0.333558   3.835269  21.096489  -0.004441  -0.004931 -23.157363  -2.661573   0.369700  -6.186547   0.001310   0.000411
 -3.038167   0.890864   3.810133  -1.914157  32.708153  -1.148740   0.856950  -3.423869  -0.924594   2.486666  -8.300582   1.923671   3.578497  -8.208783   3.892331  -4.930995   2.741022  -4.065415 -36.332076   0.397078   3.956049   0.001990  35.162881  -0.003458  -5.202833   4.623686  -6.389904  -2.267689 -12.694110   5.130280 -10.736030 -45.054580 -22.156618 179.996773 -82.319239 179.996583  -1.454894  -9.944837  -2.744284 -20.260064 -14.381868  -4.228800  19.997118   0.000492  -0.000034  -0.586517 -10.961944   2.710299   1.755346  -0.000134  -0.000072   6.055965   0.343631   3.579707  20.585129  -0.004372  -0.004806 -23.478031  -2.871723   0.425462  -5.276635   0.001092   0.000643
